<svg width="159" height="33" viewBox="0 0 159 33" fill="none" xmlns="http://www.w3.org/2000/svg">
<path d="M5.10869 10.8985C5.56279 10.1266 6.2553 9.47945 7.18622 8.95723C8.13984 8.43501 9.2978 8.1739 10.6601 8.1739C11.977 8.1739 13.1577 8.42366 14.2021 8.92317C15.2466 9.42269 16.0753 10.0925 16.6884 10.9326C17.3014 11.7727 17.7669 12.7036 18.0847 13.7253C18.4026 14.7244 18.5615 15.7688 18.5615 16.8587C18.5615 17.9485 18.4026 19.0043 18.0847 20.026C17.7669 21.0251 17.3014 21.9446 16.6884 22.7847C16.0753 23.6248 15.2466 24.2946 14.2021 24.7941C13.1577 25.2936 11.977 25.5434 10.6601 25.5434C8.59394 25.5434 6.97052 24.9304 5.78984 23.7043V32.5253H1.13783e-05V8.68477H5.10869V10.8985ZM11.6819 19.6173C12.2949 18.8454 12.6014 17.9258 12.6014 16.8587C12.6014 15.7915 12.2949 14.8719 11.6819 14.1C11.0915 13.328 10.2287 12.942 9.09345 12.942C8.34418 12.942 7.67438 13.1463 7.08404 13.555C6.49371 13.941 6.06231 14.4178 5.78984 14.9855V18.7318C6.06231 19.2995 6.49371 19.7876 7.08404 20.1963C7.67438 20.5823 8.34418 20.7753 9.09345 20.7753C10.2287 20.7753 11.0915 20.3893 11.6819 19.6173ZM27.0768 25.0325H21.287V8.68477H27.0768V25.0325ZM27.4855 3.1674C27.4855 4.23454 27.1676 5.04058 26.5319 5.5855C25.9188 6.10772 25.1355 6.36883 24.1819 6.36883C23.2283 6.36883 22.4336 6.10772 21.7978 5.5855C21.1848 5.04058 20.8783 4.23454 20.8783 3.1674C20.8783 2.12296 21.1961 1.33963 21.8319 0.817408C22.4676 0.272483 23.251 1.99977e-05 24.1819 1.99977e-05C25.1355 1.99977e-05 25.9188 0.272483 26.5319 0.817408C27.1676 1.33963 27.4855 2.12296 27.4855 3.1674ZM30.3264 8.68477H44.1198V12.0906L37.5126 20.2644H44.5966V25.0325H29.8496V21.6267L36.4909 13.4529H30.3264V8.68477ZM47.0892 8.68477H60.8827V12.0906L54.2754 20.2644H61.3595V25.0325H46.6124V21.6267L53.2537 13.4529H47.0892V8.68477ZM79.5868 20.3666C79.5868 21.0478 79.9614 21.3883 80.7107 21.3883C80.9378 21.3883 81.1535 21.3543 81.3578 21.2862V24.8622C80.495 25.2028 79.5187 25.3731 78.4288 25.3731C76.6124 25.3731 75.3182 24.7714 74.5462 23.568C72.8661 24.8849 70.9702 25.5434 68.8586 25.5434C67.2465 25.5434 65.8955 25.0893 64.8057 24.1811C63.7158 23.2729 63.1709 22.0468 63.1709 20.5028C63.1709 19.5265 63.3866 18.6751 63.818 17.9485C64.2494 17.1992 64.817 16.6316 65.5209 16.2456C66.2475 15.8596 66.9967 15.5758 67.7687 15.3942C68.5634 15.2125 69.3922 15.1217 70.2549 15.1217C71.481 15.1217 72.6617 15.2466 73.797 15.4963V14.9174C73.797 14.3043 73.5018 13.8162 72.9115 13.4529C72.3438 13.0669 71.5037 12.8739 70.3912 12.8739C68.6656 12.8739 66.7583 13.2939 64.6695 14.134V9.26375C66.8946 8.53718 69.0175 8.1739 71.0383 8.1739C73.831 8.1739 75.954 8.75288 77.4071 9.91085C78.8602 11.0688 79.5868 13.0328 79.5868 15.8029V20.3666ZM69.131 20.026C69.131 20.4801 69.3127 20.8661 69.676 21.184C70.0392 21.4792 70.5161 21.6267 71.1064 21.6267C72.1281 21.6267 73.025 21.3429 73.797 20.7753V18.5615C73.1839 18.3572 72.4914 18.255 71.7194 18.255C69.9938 18.255 69.131 18.8454 69.131 20.026ZM82.8694 13.3848C82.8694 11.5456 83.5392 10.2174 84.8788 9.39998C86.2184 8.58259 87.9213 8.1739 89.9875 8.1739C92.1218 8.1739 94.1766 8.63936 96.1519 9.57027V14.1681C95.4254 13.6686 94.5172 13.2599 93.4273 12.942C92.3602 12.6014 91.3498 12.4311 90.3962 12.4311C89.3517 12.4311 88.8295 12.7036 88.8295 13.2485C88.8295 13.6572 89.1247 13.9978 89.715 14.2703C90.3053 14.52 91.0206 14.7584 91.8607 14.9855C92.7007 15.2125 93.5408 15.4963 94.3809 15.8369C95.221 16.1548 95.9362 16.6884 96.5266 17.4376C97.1169 18.1869 97.4121 19.1292 97.4121 20.2644C97.4121 23.7837 94.8123 25.5434 89.6128 25.5434C86.979 25.5434 84.788 25.0439 83.0397 24.0449V19.447C84.788 20.605 86.8769 21.184 89.3063 21.184C90.7367 21.184 91.452 20.9115 91.452 20.3666C91.452 19.9806 91.1568 19.6627 90.5665 19.413C89.9761 19.1405 89.2609 18.8908 88.4208 18.6637C87.5807 18.4367 86.7406 18.1528 85.9005 17.8123C85.0604 17.449 84.3452 16.8927 83.7549 16.1434C83.1646 15.3942 82.8694 14.4746 82.8694 13.3848ZM100.012 1.19204H105.801V9.91085C107.096 8.75288 108.606 8.1739 110.331 8.1739C112.465 8.1739 114.089 8.80965 115.201 10.0811C116.314 11.3299 116.87 12.9306 116.87 14.8833V25.0325H111.08V15.6666C111.08 14.8265 110.853 14.1908 110.399 13.7594C109.945 13.328 109.344 13.1123 108.594 13.1123C107.482 13.1123 106.551 13.5891 105.801 14.5427V25.0325H100.012V1.19204ZM121.972 23.2956C120.224 21.7743 119.35 19.6287 119.35 16.8587C119.35 14.0886 120.224 11.9543 121.972 10.4558C123.743 8.93453 125.934 8.1739 128.545 8.1739C131.156 8.1739 133.336 8.93453 135.084 10.4558C136.855 11.9543 137.741 14.0886 137.741 16.8587C137.741 19.6287 136.855 21.7743 135.084 23.2956C133.336 24.7941 131.156 25.5434 128.545 25.5434C125.934 25.5434 123.743 24.7941 121.972 23.2956ZM130.997 19.413C131.52 18.7318 131.781 17.8804 131.781 16.8587C131.781 15.8369 131.52 14.9855 130.997 14.3043C130.475 13.6232 129.658 13.2826 128.545 13.2826C127.433 13.2826 126.615 13.6232 126.093 14.3043C125.571 14.9855 125.31 15.8369 125.31 16.8587C125.31 17.8804 125.571 18.7318 126.093 19.413C126.615 20.0941 127.433 20.4347 128.545 20.4347C129.658 20.4347 130.475 20.0941 130.997 19.413ZM145.497 10.8985C145.952 10.1266 146.644 9.47945 147.575 8.95723C148.529 8.43501 149.687 8.1739 151.049 8.1739C152.366 8.1739 153.546 8.42366 154.591 8.92317C155.635 9.42269 156.464 10.0925 157.077 10.9326C157.69 11.7727 158.156 12.7036 158.474 13.7253C158.791 14.7244 158.95 15.7688 158.95 16.8587C158.95 17.9485 158.791 19.0043 158.474 20.026C158.156 21.0251 157.69 21.9446 157.077 22.7847C156.464 23.6248 155.635 24.2946 154.591 24.7941C153.546 25.2936 152.366 25.5434 151.049 25.5434C148.983 25.5434 147.359 24.9304 146.179 23.7043V32.5253H140.389V8.68477H145.497V10.8985ZM152.071 19.6173C152.684 18.8454 152.99 17.9258 152.99 16.8587C152.99 15.7915 152.684 14.8719 152.071 14.1C151.48 13.328 150.618 12.942 149.482 12.942C148.733 12.942 148.063 13.1463 147.473 13.555C146.883 13.941 146.451 14.4178 146.179 14.9855V18.7318C146.451 19.2995 146.883 19.7876 147.473 20.1963C148.063 20.5823 148.733 20.7753 149.482 20.7753C150.618 20.7753 151.48 20.3893 152.071 19.6173Z" fill="url(#paint0_linear_9_7)"/>
<defs>
<linearGradient id="paint0_linear_9_7" x1="137.767" y1="-2.96747" x2="39.4781" y2="59.911" gradientUnits="userSpaceOnUse">
<stop stop-color="#FF6432"/>
<stop offset="1" stop-color="#FFA228"/>
</linearGradient>
</defs>
</svg>
